<svg xmlns="http://www.w3.org/2000/svg" viewBox="0 0 541.89 40.67"><defs><style>.cls-1{fill:#e8e9ec;}</style></defs><g id="Layer_2" data-name="Layer 2"><g id="Layer_1-2" data-name="Layer 1"><path class="cls-1" d="M42.1,0q4.14,0,8.38.19t8.76.56q4.51.36,8.34.83c2.54.31,4.88.66,7,1L65.66,15.05a34.86,34.86,0,0,0-9.34-4.24A37.93,37.93,0,0,0,45.55,9.3a13.07,13.07,0,0,0-4.83.65c-1,.44-1.49,1-1.49,1.64s1,1.22,2.89,1.79,4.91,1.22,9,2q15.76,2.82,20.38,5.6C74.46,22.77,76,25,76,27.71q0,6.27-9.79,9.62T37,40.67q-10.08,0-19.16-.67A162.82,162.82,0,0,1,0,37.7L8.76,24.53a29.37,29.37,0,0,0,9.39,4.57A36.81,36.81,0,0,0,29,30.83a12.72,12.72,0,0,0,4.32-.63c1.15-.42,1.73-.95,1.73-1.59s-.81-1.41-2.42-2a56.93,56.93,0,0,0-7.51-1.8q-12.53-2.3-17.2-5T3.34,13.22q0-6.59,9.77-9.9T42.1,0Z"/><path class="cls-1" d="M117.16.62V13.79a23.18,23.18,0,0,0,6.2-1.06A13.33,13.33,0,0,0,128,10.16a11.25,11.25,0,0,0,2.94-4,13.71,13.71,0,0,0,1-5.49h28.93q0,7.2-3.07,11.85t-9.59,7.78a26.59,26.59,0,0,1,10.08,7.86A23.16,23.16,0,0,1,162.74,40H132.09Q131,25.95,117.16,25.64V40H88.77V.62Z"/><path class="cls-1" d="M228.84.62v9.89H204v4.88H221.3v9.89H204v4.86h24.8V40H175.77V.62Z"/><path class="cls-1" d="M304.56.62V18.08H289.34V40H259.06v-22H243.84V.62Z"/><path class="cls-1" d="M351.85,0A89.11,89.11,0,0,1,366,1.16a57.59,57.59,0,0,1,12,3l-12,13.92a47.14,47.14,0,0,0-5.53-.83c-2-.19-4-.28-6-.28a22.71,22.71,0,0,0-6.89.77c-1.51.52-2.27,1.27-2.27,2.25s.84,1.74,2.52,2.27a25.56,25.56,0,0,0,7.28.8,46,46,0,0,0,5.85-.36,34.11,34.11,0,0,0,5.09-1l12,14.92a65.71,65.71,0,0,1-12.3,3,89.79,89.79,0,0,1-13.82,1.11,63,63,0,0,1-18.92-2.58q-8.19-2.58-12.64-7.28a14.54,14.54,0,0,1-4.45-10.2,14.85,14.85,0,0,1,4.79-10.77,31,31,0,0,1,13-7.31A62.3,62.3,0,0,1,351.85,0Z"/><path class="cls-1" d="M417,.62V15.05h13.27V.62h26.08V40H430.28V25.38H417V40H390.93V.62Z"/><path class="cls-1" d="M494.62.62l9.66,8.93L513.9.62h28L518.11,22.83V40H490.45V22.83L466.63.62Z"/></g></g></svg>